<?xml version="1.0" encoding="utf-8" ?>
<svg baseProfile="full" height="332" version="1.1" width="488" xmlns="http://www.w3.org/2000/svg" xmlns:ev="http://www.w3.org/2001/xml-events" xmlns:xlink="http://www.w3.org/1999/xlink"><defs /><polyline fill="none" points="284,5 283,6 280,6 279,7 267,7 266,8 260,8 259,9 256,9 255,10 252,10 251,11 248,11 247,12 246,12 245,13 242,13 241,14 240,14 239,15 236,15 234,17 231,17 230,18 229,18 228,19 227,19 225,21 224,21 222,23 220,23 218,25 217,25 206,36 205,36 195,46 195,47 190,52 190,53 188,55 188,56 186,58 186,59 184,61 184,62 183,63 183,64 181,66 181,67 179,69 179,71 176,74 176,76 174,78 174,79 173,80 173,81 172,82 172,84 171,85 171,87 169,89 169,91 167,93 167,96 165,98 165,100 164,101 164,103 163,104 163,106 162,107 162,108 161,109 161,110 160,111 160,113 159,114 159,115 157,117 156,117 155,118 154,118 153,119 150,119 149,120 148,119 147,120 144,120 143,121 142,121 138,125 138,126 137,127 137,128 136,129 136,134 135,135 136,136 136,137 137,138 136,139 135,139 134,138 134,137 132,135 131,135 126,130 125,130 123,128 122,128 120,126 118,126 117,125 116,125 114,123 113,123 112,122 111,122 110,121 109,121 108,120 106,120 105,119 103,119 102,118 100,118 99,117 97,117 96,116 93,116 92,115 89,115 88,114 84,114 83,113 80,113 79,114 78,113 64,113 63,114 62,113 61,114 56,114 55,115 52,115 51,116 49,116 48,117 46,117 45,118 43,118 42,119 40,119 39,120 38,120 37,121 36,121 34,123 33,123 30,126 29,126 18,137 18,138 16,140 16,142 15,143 15,144 13,146 13,148 12,149 12,152 11,153 11,158 10,159 10,162 9,163 9,168 10,169 10,172 11,173 11,176 12,177 12,179 13,180 13,182 14,183 14,184 15,185 15,186 20,191 20,192 22,194 23,194 27,198 28,198 31,201 32,201 33,202 34,202 35,203 37,203 38,204 40,204 41,205 42,205 43,206 45,206 46,207 49,207 50,208 53,208 54,209 58,209 60,211 58,213 57,213 56,214 56,215 53,218 53,221 52,222 52,223 53,224 53,227 54,228 54,230 55,231 55,232 62,239 64,239 66,241 67,241 68,242 71,242 72,243 74,243 75,244 79,244 80,245 87,245 88,244 89,245 90,245 91,244 96,244 97,243 100,243 101,242 103,242 104,241 107,241 108,240 109,240 110,239 112,239 114,237 115,237 116,236 117,236 119,234 120,234 128,242 129,242 131,244 132,244 134,246 135,246 136,247 137,247 138,248 138,249 137,250 136,250 135,251 134,251 133,252 131,252 130,253 129,253 127,255 126,255 125,256 124,256 121,259 120,259 110,269 110,270 107,273 107,275 106,276 106,277 105,278 105,280 104,281 104,284 103,285 104,286 103,287 103,288 104,289 103,290 104,291 104,294 105,295 105,298 106,299 106,301 107,302 107,303 110,306 110,307 117,314 118,314 119,315 120,315 121,316 123,316 124,317 125,317 126,318 129,318 130,319 134,319 135,320 139,320 140,321 141,321 142,320 174,320 175,321 182,321 183,320 189,320 190,319 193,319 194,318 196,318 198,316 200,316 201,315 203,315 204,314 205,314 207,312 208,312 209,311 210,311 214,307 215,307 219,303 220,303 225,298 225,297 232,290 232,289 235,286 235,285 237,283 237,282 238,281 241,281 242,282 244,282 245,283 247,283 248,284 251,284 252,285 255,285 256,286 260,286 261,287 262,286 263,287 269,287 270,288 280,288 281,289 288,289 289,290 317,290 318,289 322,289 323,288 324,289 325,288 328,288 329,287 332,287 333,286 334,286 335,287 335,288 337,290 337,291 341,295 341,296 349,304 350,304 354,308 355,308 356,309 357,309 360,312 361,312 362,313 363,313 364,314 366,314 367,315 368,315 370,317 373,317 374,318 375,318 376,319 379,319 380,320 382,320 383,321 387,321 388,322 394,322 395,323 399,323 400,324 437,324 438,323 443,323 444,322 446,322 447,321 449,321 450,320 451,320 452,319 454,319 460,313 460,312 461,311 461,310 462,309 462,308 463,307 463,304 464,303 464,299 465,298 465,296 464,295 464,294 465,293 464,292 464,289 463,288 463,285 462,284 462,282 461,281 461,280 460,279 460,278 457,275 457,274 445,262 444,262 443,261 443,260 444,259 445,259 446,258 447,258 448,257 449,257 450,256 451,256 452,255 453,255 458,250 459,250 468,241 468,240 471,237 471,236 472,235 472,234 474,232 474,230 475,229 475,228 477,226 477,223 478,222 478,219 479,218 479,207 473,201 472,201 471,200 468,200 467,199 460,199 459,198 455,198 454,197 453,197 452,198 450,198 448,196 454,190 454,189 455,188 455,187 456,186 456,185 457,184 457,181 458,180 458,177 459,176 459,175 458,174 458,172 457,171 457,169 450,162 449,162 448,161 447,161 446,160 445,160 444,159 442,159 441,158 440,158 439,157 438,157 437,156 436,156 430,150 430,148 429,147 429,141 428,140 428,132 427,131 427,128 426,127 426,123 425,122 425,118 424,117 424,114 423,113 423,110 422,109 422,106 421,105 421,103 420,102 420,101 419,100 419,97 418,96 418,95 417,94 417,93 416,92 416,90 415,89 415,87 414,86 414,85 413,84 413,83 412,82 412,81 411,80 411,79 409,77 409,76 408,75 408,74 407,73 407,72 405,70 405,69 404,68 404,67 402,65 402,64 401,63 401,62 398,59 398,58 394,54 394,53 391,50 391,49 380,38 379,38 374,33 373,33 371,31 370,31 368,29 367,29 365,27 364,27 362,25 361,25 360,24 359,24 357,22 356,22 355,21 353,21 352,20 351,20 349,18 347,18 346,17 345,17 344,16 342,16 341,15 340,15 339,14 336,14 335,13 333,13 332,12 330,12 329,11 326,11 325,10 322,10 321,9 317,9 316,8 309,8 308,7 296,7 295,6 292,6 291,5 290,6 285,6" stroke="black" stroke-width="1" /></svg>